<svg width="27" height="39" viewBox="0 0 27 39" fill="none" xmlns="http://www.w3.org/2000/svg">
<path d="M26.3045 12.0734C26.1163 11.8651 25.8974 11.6879 25.6558 11.5483C25.9265 10.4454 25.803 9.28018 25.3074 8.26174C24.8118 7.2433 23.9766 6.43828 22.9516 5.99111C22.7086 4.95884 22.0895 4.05959 21.2199 3.476C20.3503 2.8924 19.2955 2.66822 18.2697 2.84899C17.7952 1.98495 17.1035 1.2655 16.2656 0.764735C15.4278 0.263973 14.4743 0 13.5032 0C12.5321 0 11.5785 0.263973 10.7407 0.764735C9.90293 1.2655 9.21116 1.98495 8.73666 2.84899C7.71088 2.66822 6.65607 2.8924 5.7865 3.476C4.91692 4.05959 4.29777 4.95884 4.05481 5.99111C3.02927 6.43779 2.19343 7.24261 1.69731 8.2611C1.2012 9.27959 1.0773 10.4451 1.34786 11.5483C1.1062 11.6879 0.887333 11.8651 0.699123 12.0734C0.442444 12.3649 0.24895 12.7083 0.13128 13.0813C0.0136095 13.4542 -0.0255905 13.8483 0.0162399 14.2378L2.31619 35.2841C2.42775 36.3057 2.90469 37.2496 3.65582 37.9351C4.40694 38.6207 5.37952 38.9998 6.38754 39H20.6188C21.6271 38.9998 22.5998 38.6204 23.351 37.9346C24.1021 37.2488 24.5789 36.3046 24.6902 35.2827L26.9833 14.2378C27.0257 13.8486 26.9871 13.4547 26.8702 13.0818C26.7532 12.7088 26.5605 12.3652 26.3045 12.0734ZM5.58994 8.40062C5.92796 8.33284 6.22838 8.13731 6.431 7.85319C6.63362 7.56908 6.72347 7.21738 6.68255 6.86856C6.70002 6.62796 6.77847 6.39613 6.91022 6.19575C7.04196 5.99537 7.22249 5.83333 7.43412 5.7255C7.64574 5.61766 7.8812 5.56773 8.11744 5.5806C8.35367 5.59347 8.58258 5.66869 8.78173 5.7989C8.96577 5.91966 9.17556 5.99354 9.39344 6.01435C9.61133 6.03515 9.83092 6.00225 10.0337 5.91843C10.2365 5.83461 10.4166 5.70231 10.5588 5.53269C10.701 5.36306 10.8012 5.16108 10.8509 4.94373C10.9928 4.33368 11.3324 3.79028 11.8147 3.40145C12.297 3.01262 12.8938 2.8011 13.5087 2.8011C14.1235 2.8011 14.7203 3.01262 15.2026 3.40145C15.685 3.79028 16.0245 4.33368 16.1664 4.94373C16.2161 5.16108 16.3163 5.36306 16.4585 5.53269C16.6007 5.70231 16.7808 5.83461 16.9836 5.91843C17.1864 6.00225 17.406 6.03515 17.6239 6.01435C17.8417 5.99354 18.0515 5.91966 18.2356 5.7989C18.4347 5.66937 18.6633 5.59471 18.8992 5.5822C19.135 5.56969 19.37 5.61976 19.5812 5.72752C19.7924 5.83528 19.9726 5.99705 20.1042 6.19704C20.2358 6.39703 20.3143 6.6284 20.332 6.86856C20.2911 7.21738 20.381 7.56908 20.5836 7.85319C20.7862 8.13731 21.0866 8.33284 21.4246 8.40062C21.7127 8.45829 21.985 8.57894 22.2229 8.75427C22.4608 8.92959 22.6586 9.15543 22.8027 9.41621C22.9468 9.67699 23.0337 9.96653 23.0576 10.2649C23.0814 10.5632 23.0415 10.8633 22.9406 11.1444H4.06574C3.96493 10.8627 3.92531 10.562 3.94962 10.2632C3.97393 9.96436 4.06158 9.67447 4.20651 9.41356C4.35145 9.15266 4.55022 8.92696 4.78907 8.75206C5.02793 8.57717 5.30118 8.45726 5.58994 8.40062ZM17.6005 13.93L16.2347 36.1281C16.2347 36.1573 16.2456 36.1838 16.247 36.2144H10.7566C10.7566 36.1838 10.7703 36.1573 10.7689 36.1281L9.40589 13.93H17.6005ZM5.03543 34.9749L2.73685 13.93H6.68938C6.68938 13.9606 6.67572 13.9871 6.67709 14.0177L8.04012 36.2144H6.38754C6.05226 36.2131 5.72917 36.086 5.47983 35.8574C5.23049 35.6288 5.07231 35.3147 5.03543 34.9749ZM21.9819 34.9749C21.9449 35.3157 21.7859 35.6306 21.5354 35.8593C21.2849 36.088 20.9605 36.2145 20.6243 36.2144H18.9663L20.332 14.0177C20.332 13.9871 20.3211 13.9606 20.3197 13.93H24.2723L21.9819 34.9749Z" fill="url(#paint0_linear_122_20)"/>
<defs>
<linearGradient id="paint0_linear_122_20" x1="4.05755" y1="38.2771" x2="23.6935" y2="4.92583" gradientUnits="userSpaceOnUse">
<stop stop-color="#A3E635"/>
<stop offset="1" stop-color="#E3F7C2"/>
</linearGradient>
</defs>
</svg>
